<?xml version="1.0" standalone="no"?><!DOCTYPE svg PUBLIC "-//W3C//DTD SVG 1.1//EN" "http://www.w3.org/Graphics/SVG/1.1/DTD/svg11.dtd"><svg t="1634114358022" class="icon" viewBox="0 0 1024 1024" version="1.1" xmlns="http://www.w3.org/2000/svg" p-id="3371" xmlns:xlink="http://www.w3.org/1999/xlink" width="200" height="200"><defs><style type="text/css"></style></defs><path d="M252.083588 428.805342a37.862357 37.862357 0 0 0-26.902202 10.163054l-151.250152 152.047254a253.079965 253.079965 0 0 0 358.696014 358.696014L583.080298 797.664409a38.061633 38.061633 0 0 0 0-53.804402 39.855113 39.855113 0 0 0-53.804402 0L378.62357 895.309435A177.155976 177.155976 0 0 1 127.735636 644.820052L278.985789 493.769175a38.061633 38.061633 0 0 0-26.902201-64.963833zM769.40295 76.685422A176.9567 176.9567 0 0 1 894.747279 379.185727l-148.460295 148.460294a38.061633 38.061633 0 0 0 26.902201 64.963834 37.663081 37.663081 0 0 0 26.902202-11.159432l148.460294-148.460294a253.079965 253.079965 0 1 0-358.696014-358.696014l-148.460294 148.460294a38.061633 38.061633 0 0 0 0 53.804402 39.855113 39.855113 0 0 0 53.804402 0L643.660069 128.098517a176.358873 176.358873 0 0 1 125.742881-51.413095z" p-id="3372"></path><path d="M640.272385 344.711054a37.663081 37.663081 0 0 0-26.902201 11.159432l-259.058233 259.058232a38.061633 38.061633 0 0 0 27.898579 63.170353 37.663081 37.663081 0 0 0 26.902201-11.159431l259.058233-259.058232a38.061633 38.061633 0 0 0-26.902201-64.963834z" p-id="3373"></path></svg>