<?xml version="1.0" standalone="no"?><!DOCTYPE svg PUBLIC "-//W3C//DTD SVG 1.1//EN" "http://www.w3.org/Graphics/SVG/1.1/DTD/svg11.dtd"><svg t="1632296553371" class="icon" viewBox="0 0 1024 1024" version="1.1" xmlns="http://www.w3.org/2000/svg" p-id="2504" xmlns:xlink="http://www.w3.org/1999/xlink" width="200" height="200"><defs><style type="text/css"></style></defs><path d="M787.692308 157.538462a78.769231 78.769231 0 0 1 78.76923 78.76923v551.384616a78.769231 78.769231 0 0 1-78.76923 78.76923H236.307692a78.769231 78.769231 0 0 1-78.76923-78.76923V236.307692a78.769231 78.769231 0 0 1 78.76923-78.76923h551.384616z m0 39.384615H236.307692a39.384615 39.384615 0 0 0-39.108923 34.776615L196.923077 236.307692v551.384616a39.384615 39.384615 0 0 0 34.776615 39.108923L236.307692 827.076923h551.384616a39.384615 39.384615 0 0 0 39.108923-34.776615L827.076923 787.692308V236.307692a39.384615 39.384615 0 0 0-34.776615-39.108923L787.692308 196.923077z" fill="#333333" p-id="2505"></path></svg>