<?xml version="1.0" standalone="no"?><!DOCTYPE svg PUBLIC "-//W3C//DTD SVG 1.1//EN" "http://www.w3.org/Graphics/SVG/1.1/DTD/svg11.dtd"><svg t="1632796391018" class="icon" viewBox="0 0 1024 1024" version="1.1" xmlns="http://www.w3.org/2000/svg" p-id="11059" xmlns:xlink="http://www.w3.org/1999/xlink" width="200" height="200"><defs><style type="text/css"></style></defs><path d="M843.264 149.504H180.224c-45.056 0-81.92 36.864-81.92 81.92v403.968c0 45.056 36.864 81.92 81.92 81.92h48.128c6.656 0 9.728 3.584 13.312 8.192l70.144 142.336c1.536 3.584 3.072 6.656 6.656 9.216 1.536 0.512 3.072 1.536 4.608 2.048 1.536 1.024 4.096 1.536 6.656 1.536h1.024c2.56 0 5.12 0 6.656-1.536 1.536-0.512 3.584-1.024 4.608-2.048 3.584-2.56 5.632-5.632 6.656-9.216L430.08 726.016c3.584-5.12 12.8-8.192 19.456-8.192h393.728c45.056 0 81.92-36.864 81.92-81.92V231.936c0-45.568-36.864-82.432-81.92-82.432z m39.936 484.352c0 22.016-18.432 40.448-40.448 40.448H439.808c-13.312 0-26.624 8.192-34.816 18.432l-21.504 40.96-50.688 94.72-47.104-94.72-19.968-40.96c-8.192-10.24-16.384-18.432-29.696-18.432H174.08h6.144c-22.016 0-40.448-18.432-40.448-40.448V229.888c0-22.016 18.432-40.448 40.448-40.448h663.04c22.016 0 40.448 18.432 40.448 40.448v403.968z" fill="" p-id="11060"></path></svg>