<?xml version="1.0" standalone="no"?><!DOCTYPE svg PUBLIC "-//W3C//DTD SVG 1.1//EN" "http://www.w3.org/Graphics/SVG/1.1/DTD/svg11.dtd"><svg t="1637570818266" class="icon" viewBox="0 0 1024 1024" version="1.1" xmlns="http://www.w3.org/2000/svg" p-id="1719" xmlns:xlink="http://www.w3.org/1999/xlink" width="200" height="200"><defs><style type="text/css"></style></defs><path d="M884.513 129.14h-744.94c-41.144 0-74.494 33.355-74.494 74.494V799.59c0 41.139 33.35 74.49 74.494 74.49h744.94c41.141 0 74.494-33.351 74.494-74.49V203.634c0-41.14-33.352-74.494-74.494-74.494z m0 595.952c0 41.143-33.352 74.499-74.491 74.499H214.07c-8.62 0-16.77-1.755-24.469-4.451l173.455-144.541 148.99 111.74 186.233-223.481 186.235 148.988v37.246z m0-148.988L698.28 427.121 512.046 650.599l-148.99-111.742-223.483 186.235V278.127c0-41.138 33.354-74.493 74.497-74.493h595.952c41.139 0 74.491 33.355 74.491 74.493v297.977z" fill="#515151" p-id="1720"></path><path d="M325.808 315.375c-41.144 0-74.491 33.35-74.491 74.493s33.348 74.494 74.491 74.494c41.141 0 74.494-33.35 74.494-74.494s-33.353-74.493-74.494-74.493z" fill="#515151" p-id="1721"></path></svg>